<svg baseProfile="tiny" xmlns="http://www.w3.org/2000/svg" viewBox="0 0 128 64"><path fill="#FFF" d="M13.1 11.1h7.7c.3-.3.3-.9 0-1.2L11.1.2c-.3-.3-.9-.3-1.2 0L.2 9.9c-.3.3-.3.9 0 1.2h8c2.5 10.7 12.2 18.7 23.6 18.7v-4.7c-8.8.1-16.3-5.9-18.7-14z"/><g fill="#FFF"><path d="M38.1 23.8l3.6-.8c.4 2 2.1 3 5 3 1.3 0 2.3-.3 3-.8.7-.5 1.1-1.2 1.1-1.9 0-.6-.2-1.1-.5-1.6s-1-.8-2.1-1.1l-3.9-1c-1.3-.4-2.3-.7-3-1.2-.6-.4-1.2-1.1-1.5-1.9-.4-.8-.6-1.7-.6-2.6 0-1.8.7-3.3 2-4.4 1.4-1.1 3.1-1.7 5.2-1.7 1.8 0 3.3.4 4.7 1.2 1.4.8 2.3 1.9 2.7 3.3l-3.5.9c-.5-1.6-1.8-2.3-3.8-2.3-1.2 0-2 .2-2.6.7-.6.5-.9 1.1-.9 1.8 0 1.2 1 2 2.9 2.5l3.5.9c2.1.5 3.5 1.3 4.2 2.4s1.1 2.2 1.1 3.4c0 2-.8 3.6-2.3 4.8-1.5 1.2-3.5 1.7-5.9 1.7-2 0-3.8-.4-5.3-1.3-1.6-.9-2.6-2.2-3.1-4zM65 28.7h-4V11.4h-5.5V8.2h14.9v3.2H65v17.3zM87.2 28.7h-3.9l-1.6-4.9h-7.9l-1.6 4.9H69l6.8-20.5h4.6l6.8 20.5zm-6.6-7.8l-3-9.1-3 9.1h6zM105.6 28.7h-3.9l-3.2-8.4h-5.2v8.4h-3.7V8.2h8.9c2.5 0 4.3.6 5.5 1.7 1.2 1.1 1.7 2.6 1.7 4.3 0 2.6-1.2 4.4-3.7 5.4l3.6 9.1zM93.3 17.4h4.6c1.3 0 2.3-.3 3-.8.7-.6 1-1.3 1-2.3 0-.9-.3-1.6-1-2.2s-1.5-.8-2.7-.8h-4.9v6.1zM116.5 28.7h-4V11.4H107V8.2h15v3.2h-5.5v17.3zM55.4 56.1h-3.7v-8.9h-7.8v8.9h-3.7V35.6h3.7V44h7.8v-8.4h3.7v20.5zM76.3 56.1H63V35.6h13.2v3h-9.5v5.6h7.6v3h-7.6v5.7h9.6v3.2zM98.6 56.1h-3.9l-3.2-8.4h-5.2v8.4h-3.7V35.6h8.9c2.5 0 4.3.6 5.5 1.7 1.2 1.1 1.7 2.6 1.7 4.3 0 2.6-1.2 4.4-3.7 5.4l3.6 9.1zM86.3 44.7h4.6c1.3 0 2.3-.3 3-.8.7-.6 1-1.3 1-2.3 0-.9-.3-1.6-1-2.2-.6-.6-1.5-.8-2.7-.8h-4.9v6.1zM118.8 56.1h-13.3V35.6h13.2v3h-9.5v5.6h7.6v3h-7.6v5.7h9.6v3.2z"/></g></svg>