<?xml version="1.0" encoding="utf-8"?>
<!-- Generator: Adobe Illustrator 19.1.0, SVG Export Plug-In . SVG Version: 6.00 Build 0)  -->
<svg version="1.1" baseProfile="tiny" id="Layer_1" xmlns="http://www.w3.org/2000/svg" xmlns:xlink="http://www.w3.org/1999/xlink"
	 x="0px" y="0px" viewBox="0 0 128 64" xml:space="preserve">
<g>
	<path fill="#FFFFFF" d="M13.1,11.1h7.7c0.3-0.3,0.3-0.9,0-1.2l-9.7-9.7c-0.3-0.3-0.9-0.3-1.2,0L0.2,9.9c-0.3,0.3-0.3,0.9,0,1.2h8
		c2.5,10.7,12.2,18.7,23.6,18.7v-4.7C23,25.2,15.5,19.2,13.1,11.1z"/>
</g>
<g>
	<path fill="#FFFFFF" d="M38.1,23.8l3.6-0.8c0.4,2,2.1,3,5,3c1.3,0,2.3-0.3,3-0.8c0.7-0.5,1.1-1.2,1.1-1.9c0-0.6-0.2-1.1-0.5-1.6
		c-0.3-0.5-1-0.8-2.1-1.1l-3.9-1c-1.3-0.4-2.3-0.7-3-1.2c-0.6-0.4-1.2-1.1-1.5-1.9c-0.4-0.8-0.6-1.7-0.6-2.6c0-1.8,0.7-3.3,2-4.4
		c1.4-1.1,3.1-1.7,5.2-1.7c1.8,0,3.3,0.4,4.7,1.2c1.4,0.8,2.3,1.9,2.7,3.3l-3.5,0.9c-0.5-1.6-1.8-2.3-3.8-2.3c-1.2,0-2,0.2-2.6,0.7
		c-0.6,0.5-0.9,1.1-0.9,1.8c0,1.2,1,2,2.9,2.5l3.5,0.9c2.1,0.5,3.5,1.3,4.2,2.4s1.1,2.2,1.1,3.4c0,2-0.8,3.6-2.3,4.8
		c-1.5,1.2-3.5,1.7-5.9,1.7c-2,0-3.8-0.4-5.3-1.3C39.6,26.9,38.6,25.6,38.1,23.8z"/>
	<path fill="#FFFFFF" d="M65,28.7h-4V11.4h-5.5V8.2h14.9v3.2H65V28.7z"/>
	<path fill="#FFFFFF" d="M87.2,28.7h-3.9l-1.6-4.9h-7.9l-1.6,4.9h-3.2l6.8-20.5h4.6L87.2,28.7z M80.6,20.9l-3-9.1l-3,9.1H80.6z"/>
	<path fill="#FFFFFF" d="M105.6,28.7h-3.9l-3.2-8.4h-5.2v8.4h-3.7V8.2h8.9c2.5,0,4.3,0.6,5.5,1.7c1.2,1.1,1.7,2.6,1.7,4.3
		c0,2.6-1.2,4.4-3.7,5.4L105.6,28.7z M93.3,17.4h4.6c1.3,0,2.3-0.3,3-0.8c0.7-0.6,1-1.3,1-2.3c0-0.9-0.3-1.6-1-2.2s-1.5-0.8-2.7-0.8
		h-4.9V17.4z"/>
	<path fill="#FFFFFF" d="M116.5,28.7h-4V11.4h-5.5V8.2H122v3.2h-5.5V28.7z"/>
	<path fill="#FFFFFF" d="M55.4,56.1h-3.7v-8.9h-7.8v8.9h-3.7V35.6h3.7V44h7.8v-8.4h3.7V56.1z"/>
	<path fill="#FFFFFF" d="M76.3,56.1H63V35.6h13.2v3h-9.5v5.6h7.6v3h-7.6v5.7h9.6V56.1z"/>
	<path fill="#FFFFFF" d="M98.6,56.1h-3.9l-3.2-8.4h-5.2v8.4h-3.7V35.6h8.9c2.5,0,4.3,0.6,5.5,1.7c1.2,1.1,1.7,2.6,1.7,4.3
		c0,2.6-1.2,4.4-3.7,5.4L98.6,56.1z M86.3,44.7h4.6c1.3,0,2.3-0.3,3-0.8c0.7-0.6,1-1.3,1-2.3c0-0.9-0.3-1.6-1-2.2
		c-0.6-0.6-1.5-0.8-2.7-0.8h-4.9V44.7z"/>
	<path fill="#FFFFFF" d="M118.8,56.1h-13.3V35.6h13.2v3h-9.5v5.6h7.6v3h-7.6v5.7h9.6V56.1z"/>
</g>
</svg>
